<svg t="1723616950500" class="icon" viewBox="0 0 1024 1024" version="1.1" xmlns="http://www.w3.org/2000/svg" p-id="33738" width="24" height="24"><path d="M326.4 896H187.733333c-19.2 0-32-12.8-32-32V217.6c0-19.2 12.8-32 32-32h72.533334v10.666667c0 29.866667 23.466667 53.333333 53.333333 53.333333h279.466667c27.733333 0 53.333333-25.6 53.333333-53.333333v-10.666667h72.533333c19.2 0 32 12.8 32 32v98.133333c0 17.066667 14.933333 32 32 32s32-14.933333 32-32v-98.133333c0-53.333333-42.666667-96-96-96h-72.533333v-8.533333c0-29.866667-23.466667-53.333333-53.333333-53.333334H313.6c-29.866667 0-53.333333 23.466667-53.333333 53.333334v8.533333H187.733333c-53.333333 0-96 42.666667-96 96v646.4c0 53.333333 42.666667 96 96 96h138.666667c17.066667 0 32-14.933333 32-32s-14.933333-32-32-32z m-2.133333-772.266667h258.133333v61.866667H324.266667V123.733333z" p-id="33739" fill="#757575"></path><path d="M842.666667 778.666667c-8.533333 0-14.933333 2.133333-23.466667 2.133333l-100.266667-170.666667 102.4-179.2c8.533333-14.933333 4.266667-34.133333-12.8-42.666666-14.933333-8.533333-34.133333-4.266667-42.666666 12.8L682.666667 548.266667l-87.466667-147.2c-8.533333-14.933333-27.733333-21.333333-44.8-10.666667-14.933333 8.533333-21.333333 27.733333-10.666667 44.8l104.533334 179.2-98.133334 172.8c-8.533333-2.133333-19.2-4.266667-27.733333-4.266667-51.2 0-91.733333 40.533333-91.733333 91.733334s40.533333 91.733333 91.733333 91.733333 91.733333-40.533333 91.733333-91.733333c0-17.066667-4.266667-32-12.8-44.8l85.333334-149.333334 85.333333 142.933334c-10.666667 14.933333-17.066667 32-17.066667 51.2 0 51.2 40.533333 91.733333 91.733334 91.733333s91.733333-40.533333 91.733333-91.733333-40.533333-96-91.733333-96z m-324.266667 119.466666c-14.933333 0-27.733333-12.8-27.733333-27.733333s12.8-27.733333 27.733333-27.733333c6.4 0 12.8 2.133333 17.066667 6.4l4.266666 4.266666c4.266667 4.266667 6.4 10.666667 6.4 17.066667 0 14.933333-12.8 27.733333-27.733333 27.733333z m324.266667 0c-14.933333 0-27.733333-12.8-27.733334-27.733333s12.8-27.733333 27.733334-27.733333 27.733333 12.8 27.733333 27.733333-12.8 27.733333-27.733333 27.733333z" p-id="33740" fill="#757575"></path></svg>