<svg t="1723618884326" class="icon" viewBox="0 0 1024 1024" version="1.1" xmlns="http://www.w3.org/2000/svg" p-id="46026" width="24" height="24"><path d="M192.35 959.94c-35.31 0-63.93-28.62-63.93-63.93V351.76c0-17.65 14.31-31.96 31.96-31.96s31.96 14.31 31.96 31.96v544.31h479.48c17.65 0 31.96 14.31 31.96 31.96s-14.31 31.97-31.97 31.96l-479.46-0.05z m639.94-128.69H320.21c-33.61 1.68-62.21-24.21-63.89-57.82-0.02-0.38-0.03-0.75-0.05-1.13V123.02c1.05-33.63 29.17-60.04 62.8-58.99 0.38 0.01 0.75 0.03 1.13 0.05h279.38a63.496 63.496 0 0 1 45.65 19.18L877.3 319.8a63.455 63.455 0 0 1 18.28 44.75v407.56c-0.96 33.63-29.01 60.12-62.64 59.16-0.21-0.01-0.43-0.01-0.65-0.02zM320.21 128.01v639.31h511.45V384.56H575.93V128.01H320.21z m319.65 41.3v151.32h148.38L639.86 169.31z" p-id="46027" fill="#757575"></path></svg>