<svg t="1739238164967" class="icon" viewBox="0 0 1024 1024" version="1.1" xmlns="http://www.w3.org/2000/svg" p-id="1787" width="24" height="24"><path d="M893.76 523.26a29.582 29.582 0 0 0 0-22.56c-1.5-3.63-3.67-6.9-6.4-9.62l-88.6-88.6c-11.54-11.54-30.23-11.54-41.77 0-11.54 11.54-11.54 30.23 0 41.77l38.2 38.2H541.54V228.8l38.2 38.2c5.77 5.77 13.33 8.65 20.89 8.65s15.12-2.88 20.89-8.65c11.54-11.54 11.54-30.23 0-41.77l-88.6-88.6c-2.73-2.74-6-4.9-9.62-6.4a29.562 29.562 0 0 0-22.57 0c-3.63 1.5-6.89 3.67-9.62 6.4l-88.6 88.6c-11.54 11.54-11.54 30.23 0 41.77 11.54 11.54 30.23 11.54 41.77 0l38.2-38.2v253.64H228.82l38.2-38.2c11.54-11.54 11.54-30.23 0-41.77s-30.23-11.54-41.77 0l-88.6 88.6c-2.73 2.73-4.9 6-6.4 9.62a29.516 29.516 0 0 0 0 22.57c1.5 3.62 3.66 6.89 6.4 9.62l88.6 88.6c5.77 5.77 13.33 8.65 20.89 8.65 7.56 0 15.12-2.88 20.89-8.65 11.54-11.54 11.54-30.23 0-41.77l-38.2-38.2h253.64v253.64l-38.2-38.2c-11.54-11.54-30.23-11.54-41.77 0-11.54 11.54-11.54 30.23 0 41.77l88.6 88.6c2.73 2.74 6 4.9 9.62 6.4 3.61 1.49 7.44 2.28 11.29 2.28s7.68-0.78 11.29-2.28c3.63-1.5 6.89-3.67 9.62-6.4l88.6-88.6c11.54-11.54 11.54-30.23 0-41.77-11.54-11.54-30.23-11.54-41.77 0l-38.2 38.2V541.52h253.64l-38.2 38.2c-11.54 11.54-11.54 30.23 0 41.77 5.77 5.77 13.33 8.65 20.89 8.65s15.12-2.88 20.89-8.65l88.6-88.6c2.73-2.73 4.89-6 6.39-9.63z" fill="#757575" p-id="1788"></path></svg>