<svg t="1723619044765" class="icon" viewBox="0 0 1024 1024" version="1.1" xmlns="http://www.w3.org/2000/svg" p-id="98429" width="24" height="24"><path d="M854.4 329.6l-240-240C608 83.2 600 80 592 80H224c-35.2 0-64 28.8-64 64v736c0 35.2 28.8 64 64 64h192c17.6 0 32-14.4 32-32s-14.4-32-32-32H224V144h336v208c0 17.6 14.4 32 32 32h208v128c0 17.6 14.4 32 32 32s32-14.4 32-32V352c0-8-3.2-16-9.6-22.4zM624 188.8l131.2 131.2H624v-131.2z" fill="#757575" p-id="98430"></path><path d="M694.4 569.6c-12.8-12.8-32-12.8-44.8 0l-144 144c-12.8 12.8-12.8 32 0 44.8 12.8 12.8 32 12.8 44.8 0l89.6-89.6V912c0 17.6 14.4 32 32 32s32-14.4 32-32V668.8l89.6 89.6c6.4 6.4 14.4 9.6 22.4 9.6 8 0 16-3.2 22.4-9.6 12.8-12.8 12.8-32 0-44.8l-144-144z" fill="#757575" p-id="98431"></path></svg>